<?xml version="1.0" encoding="utf-8" standalone="no"?>
<!DOCTYPE svg PUBLIC "-//W3C//DTD SVG 1.1//EN"
  "http://www.w3.org/Graphics/SVG/1.1/DTD/svg11.dtd">
<svg xmlns:xlink="http://www.w3.org/1999/xlink" width="720pt" height="432pt" viewBox="0 0 720 432" xmlns="http://www.w3.org/2000/svg" version="1.1">
 <metadata>
  <rdf:RDF xmlns:dc="http://purl.org/dc/elements/1.1/" xmlns:cc="http://creativecommons.org/ns#" xmlns:rdf="http://www.w3.org/1999/02/22-rdf-syntax-ns#">
   <cc:Work>
    <dc:type rdf:resource="http://purl.org/dc/dcmitype/StillImage"/>
    <dc:date>2022-03-08T22:24:55.109655</dc:date>
    <dc:format>image/svg+xml</dc:format>
    <dc:creator>
     <cc:Agent>
      <dc:title>Matplotlib v3.5.1, https://matplotlib.org/</dc:title>
     </cc:Agent>
    </dc:creator>
   </cc:Work>
  </rdf:RDF>
 </metadata>
 <defs>
  <style type="text/css">*{stroke-linejoin: round; stroke-linecap: butt}</style>
 </defs>
 <g id="figure_1">
  <g id="patch_1">
   <path d="M 0 432 
L 720 432 
L 720 0 
L 0 0 
L 0 432 
z
" style="fill: none"/>
  </g>
  <g id="axes_1">
   <g id="patch_2">
    <path d="M 90 333.283636 
L 343.636364 333.283636 
L 343.636364 96.556364 
L 90 96.556364 
z
" style="fill: #ffffff"/>
   </g>
   <g id="matplotlib.axis_1">
    <g id="xtick_1">
     <g id="line2d_1">
      <path d="M 90 333.283636 
L 90 96.556364 
" clip-path="url(#p33276d82ad)" style="fill: none; stroke-dasharray: 2.96,1.28; stroke-dashoffset: 0; stroke: #d3d3d3; stroke-width: 0.8"/>
     </g>
     <g id="line2d_2">
      <defs>
       <path id="md28076ca65" d="M 0 0 
L 0 3.5 
" style="stroke: #000000; stroke-width: 0.8"/>
      </defs>
      <g>
       <use xlink:href="#md28076ca65" x="90" y="333.283636" style="stroke: #000000; stroke-width: 0.8"/>
      </g>
     </g>
     <g id="text_1">
      <!-- −15 -->
      <g transform="translate(79.447656 347.882074)scale(0.1 -0.1)">
       <defs>
        <path id="DejaVuSans-2212" d="M 678 2272 
L 4684 2272 
L 4684 1741 
L 678 1741 
L 678 2272 
z
" transform="scale(0.015625)"/>
        <path id="DejaVuSans-31" d="M 794 531 
L 1825 531 
L 1825 4091 
L 703 3866 
L 703 4441 
L 1819 4666 
L 2450 4666 
L 2450 531 
L 3481 531 
L 3481 0 
L 794 0 
L 794 531 
z
" transform="scale(0.015625)"/>
        <path id="DejaVuSans-35" d="M 691 4666 
L 3169 4666 
L 3169 4134 
L 1269 4134 
L 1269 2991 
Q 1406 3038 1543 3061 
Q 1681 3084 1819 3084 
Q 2600 3084 3056 2656 
Q 3513 2228 3513 1497 
Q 3513 744 3044 326 
Q 2575 -91 1722 -91 
Q 1428 -91 1123 -41 
Q 819 9 494 109 
L 494 744 
Q 775 591 1075 516 
Q 1375 441 1709 441 
Q 2250 441 2565 725 
Q 2881 1009 2881 1497 
Q 2881 1984 2565 2268 
Q 2250 2553 1709 2553 
Q 1456 2553 1204 2497 
Q 953 2441 691 2322 
L 691 4666 
z
" transform="scale(0.015625)"/>
       </defs>
       <use xlink:href="#DejaVuSans-2212"/>
       <use xlink:href="#DejaVuSans-31" x="83.789062"/>
       <use xlink:href="#DejaVuSans-35" x="147.412109"/>
      </g>
     </g>
    </g>
    <g id="xtick_2">
     <g id="line2d_3">
      <path d="M 132.272727 333.283636 
L 132.272727 96.556364 
" clip-path="url(#p33276d82ad)" style="fill: none; stroke-dasharray: 2.96,1.28; stroke-dashoffset: 0; stroke: #d3d3d3; stroke-width: 0.8"/>
     </g>
     <g id="line2d_4">
      <g>
       <use xlink:href="#md28076ca65" x="132.272727" y="333.283636" style="stroke: #000000; stroke-width: 0.8"/>
      </g>
     </g>
     <g id="text_2">
      <!-- −10 -->
      <g transform="translate(121.720384 347.882074)scale(0.1 -0.1)">
       <defs>
        <path id="DejaVuSans-30" d="M 2034 4250 
Q 1547 4250 1301 3770 
Q 1056 3291 1056 2328 
Q 1056 1369 1301 889 
Q 1547 409 2034 409 
Q 2525 409 2770 889 
Q 3016 1369 3016 2328 
Q 3016 3291 2770 3770 
Q 2525 4250 2034 4250 
z
M 2034 4750 
Q 2819 4750 3233 4129 
Q 3647 3509 3647 2328 
Q 3647 1150 3233 529 
Q 2819 -91 2034 -91 
Q 1250 -91 836 529 
Q 422 1150 422 2328 
Q 422 3509 836 4129 
Q 1250 4750 2034 4750 
z
" transform="scale(0.015625)"/>
       </defs>
       <use xlink:href="#DejaVuSans-2212"/>
       <use xlink:href="#DejaVuSans-31" x="83.789062"/>
       <use xlink:href="#DejaVuSans-30" x="147.412109"/>
      </g>
     </g>
    </g>
    <g id="xtick_3">
     <g id="line2d_5">
      <path d="M 174.545455 333.283636 
L 174.545455 96.556364 
" clip-path="url(#p33276d82ad)" style="fill: none; stroke-dasharray: 2.96,1.28; stroke-dashoffset: 0; stroke: #d3d3d3; stroke-width: 0.8"/>
     </g>
     <g id="line2d_6">
      <g>
       <use xlink:href="#md28076ca65" x="174.545455" y="333.283636" style="stroke: #000000; stroke-width: 0.8"/>
      </g>
     </g>
     <g id="text_3">
      <!-- −5 -->
      <g transform="translate(167.174361 347.882074)scale(0.1 -0.1)">
       <use xlink:href="#DejaVuSans-2212"/>
       <use xlink:href="#DejaVuSans-35" x="83.789062"/>
      </g>
     </g>
    </g>
    <g id="xtick_4">
     <g id="line2d_7">
      <path d="M 216.818182 333.283636 
L 216.818182 96.556364 
" clip-path="url(#p33276d82ad)" style="fill: none; stroke-dasharray: 2.96,1.28; stroke-dashoffset: 0; stroke: #d3d3d3; stroke-width: 0.8"/>
     </g>
     <g id="line2d_8">
      <g>
       <use xlink:href="#md28076ca65" x="216.818182" y="333.283636" style="stroke: #000000; stroke-width: 0.8"/>
      </g>
     </g>
     <g id="text_4">
      <!-- 0 -->
      <g transform="translate(213.636932 347.882074)scale(0.1 -0.1)">
       <use xlink:href="#DejaVuSans-30"/>
      </g>
     </g>
    </g>
    <g id="xtick_5">
     <g id="line2d_9">
      <path d="M 259.090909 333.283636 
L 259.090909 96.556364 
" clip-path="url(#p33276d82ad)" style="fill: none; stroke-dasharray: 2.96,1.28; stroke-dashoffset: 0; stroke: #d3d3d3; stroke-width: 0.8"/>
     </g>
     <g id="line2d_10">
      <g>
       <use xlink:href="#md28076ca65" x="259.090909" y="333.283636" style="stroke: #000000; stroke-width: 0.8"/>
      </g>
     </g>
     <g id="text_5">
      <!-- 5 -->
      <g transform="translate(255.909659 347.882074)scale(0.1 -0.1)">
       <use xlink:href="#DejaVuSans-35"/>
      </g>
     </g>
    </g>
    <g id="xtick_6">
     <g id="line2d_11">
      <path d="M 301.363636 333.283636 
L 301.363636 96.556364 
" clip-path="url(#p33276d82ad)" style="fill: none; stroke-dasharray: 2.96,1.28; stroke-dashoffset: 0; stroke: #d3d3d3; stroke-width: 0.8"/>
     </g>
     <g id="line2d_12">
      <g>
       <use xlink:href="#md28076ca65" x="301.363636" y="333.283636" style="stroke: #000000; stroke-width: 0.8"/>
      </g>
     </g>
     <g id="text_6">
      <!-- 10 -->
      <g transform="translate(295.001136 347.882074)scale(0.1 -0.1)">
       <use xlink:href="#DejaVuSans-31"/>
       <use xlink:href="#DejaVuSans-30" x="63.623047"/>
      </g>
     </g>
    </g>
    <g id="xtick_7">
     <g id="line2d_13">
      <path d="M 343.636364 333.283636 
L 343.636364 96.556364 
" clip-path="url(#p33276d82ad)" style="fill: none; stroke-dasharray: 2.96,1.28; stroke-dashoffset: 0; stroke: #d3d3d3; stroke-width: 0.8"/>
     </g>
     <g id="line2d_14">
      <g>
       <use xlink:href="#md28076ca65" x="343.636364" y="333.283636" style="stroke: #000000; stroke-width: 0.8"/>
      </g>
     </g>
     <g id="text_7">
      <!-- 15 -->
      <g transform="translate(337.273864 347.882074)scale(0.1 -0.1)">
       <use xlink:href="#DejaVuSans-31"/>
       <use xlink:href="#DejaVuSans-35" x="63.623047"/>
      </g>
     </g>
    </g>
    <g id="text_8">
     <!-- X coordinates [$\mu$m] -->
     <g transform="translate(154.483182 369.841761)scale(0.13 -0.13)">
      <defs>
       <path id="DejaVuSans-58" d="M 403 4666 
L 1081 4666 
L 2241 2931 
L 3406 4666 
L 4084 4666 
L 2584 2425 
L 4184 0 
L 3506 0 
L 2194 1984 
L 872 0 
L 191 0 
L 1856 2491 
L 403 4666 
z
" transform="scale(0.015625)"/>
       <path id="DejaVuSans-20" transform="scale(0.015625)"/>
       <path id="DejaVuSans-63" d="M 3122 3366 
L 3122 2828 
Q 2878 2963 2633 3030 
Q 2388 3097 2138 3097 
Q 1578 3097 1268 2742 
Q 959 2388 959 1747 
Q 959 1106 1268 751 
Q 1578 397 2138 397 
Q 2388 397 2633 464 
Q 2878 531 3122 666 
L 3122 134 
Q 2881 22 2623 -34 
Q 2366 -91 2075 -91 
Q 1284 -91 818 406 
Q 353 903 353 1747 
Q 353 2603 823 3093 
Q 1294 3584 2113 3584 
Q 2378 3584 2631 3529 
Q 2884 3475 3122 3366 
z
" transform="scale(0.015625)"/>
       <path id="DejaVuSans-6f" d="M 1959 3097 
Q 1497 3097 1228 2736 
Q 959 2375 959 1747 
Q 959 1119 1226 758 
Q 1494 397 1959 397 
Q 2419 397 2687 759 
Q 2956 1122 2956 1747 
Q 2956 2369 2687 2733 
Q 2419 3097 1959 3097 
z
M 1959 3584 
Q 2709 3584 3137 3096 
Q 3566 2609 3566 1747 
Q 3566 888 3137 398 
Q 2709 -91 1959 -91 
Q 1206 -91 779 398 
Q 353 888 353 1747 
Q 353 2609 779 3096 
Q 1206 3584 1959 3584 
z
" transform="scale(0.015625)"/>
       <path id="DejaVuSans-72" d="M 2631 2963 
Q 2534 3019 2420 3045 
Q 2306 3072 2169 3072 
Q 1681 3072 1420 2755 
Q 1159 2438 1159 1844 
L 1159 0 
L 581 0 
L 581 3500 
L 1159 3500 
L 1159 2956 
Q 1341 3275 1631 3429 
Q 1922 3584 2338 3584 
Q 2397 3584 2469 3576 
Q 2541 3569 2628 3553 
L 2631 2963 
z
" transform="scale(0.015625)"/>
       <path id="DejaVuSans-64" d="M 2906 2969 
L 2906 4863 
L 3481 4863 
L 3481 0 
L 2906 0 
L 2906 525 
Q 2725 213 2448 61 
Q 2172 -91 1784 -91 
Q 1150 -91 751 415 
Q 353 922 353 1747 
Q 353 2572 751 3078 
Q 1150 3584 1784 3584 
Q 2172 3584 2448 3432 
Q 2725 3281 2906 2969 
z
M 947 1747 
Q 947 1113 1208 752 
Q 1469 391 1925 391 
Q 2381 391 2643 752 
Q 2906 1113 2906 1747 
Q 2906 2381 2643 2742 
Q 2381 3103 1925 3103 
Q 1469 3103 1208 2742 
Q 947 2381 947 1747 
z
" transform="scale(0.015625)"/>
       <path id="DejaVuSans-69" d="M 603 3500 
L 1178 3500 
L 1178 0 
L 603 0 
L 603 3500 
z
M 603 4863 
L 1178 4863 
L 1178 4134 
L 603 4134 
L 603 4863 
z
" transform="scale(0.015625)"/>
       <path id="DejaVuSans-6e" d="M 3513 2113 
L 3513 0 
L 2938 0 
L 2938 2094 
Q 2938 2591 2744 2837 
Q 2550 3084 2163 3084 
Q 1697 3084 1428 2787 
Q 1159 2491 1159 1978 
L 1159 0 
L 581 0 
L 581 3500 
L 1159 3500 
L 1159 2956 
Q 1366 3272 1645 3428 
Q 1925 3584 2291 3584 
Q 2894 3584 3203 3211 
Q 3513 2838 3513 2113 
z
" transform="scale(0.015625)"/>
       <path id="DejaVuSans-61" d="M 2194 1759 
Q 1497 1759 1228 1600 
Q 959 1441 959 1056 
Q 959 750 1161 570 
Q 1363 391 1709 391 
Q 2188 391 2477 730 
Q 2766 1069 2766 1631 
L 2766 1759 
L 2194 1759 
z
M 3341 1997 
L 3341 0 
L 2766 0 
L 2766 531 
Q 2569 213 2275 61 
Q 1981 -91 1556 -91 
Q 1019 -91 701 211 
Q 384 513 384 1019 
Q 384 1609 779 1909 
Q 1175 2209 1959 2209 
L 2766 2209 
L 2766 2266 
Q 2766 2663 2505 2880 
Q 2244 3097 1772 3097 
Q 1472 3097 1187 3025 
Q 903 2953 641 2809 
L 641 3341 
Q 956 3463 1253 3523 
Q 1550 3584 1831 3584 
Q 2591 3584 2966 3190 
Q 3341 2797 3341 1997 
z
" transform="scale(0.015625)"/>
       <path id="DejaVuSans-74" d="M 1172 4494 
L 1172 3500 
L 2356 3500 
L 2356 3053 
L 1172 3053 
L 1172 1153 
Q 1172 725 1289 603 
Q 1406 481 1766 481 
L 2356 481 
L 2356 0 
L 1766 0 
Q 1100 0 847 248 
Q 594 497 594 1153 
L 594 3053 
L 172 3053 
L 172 3500 
L 594 3500 
L 594 4494 
L 1172 4494 
z
" transform="scale(0.015625)"/>
       <path id="DejaVuSans-65" d="M 3597 1894 
L 3597 1613 
L 953 1613 
Q 991 1019 1311 708 
Q 1631 397 2203 397 
Q 2534 397 2845 478 
Q 3156 559 3463 722 
L 3463 178 
Q 3153 47 2828 -22 
Q 2503 -91 2169 -91 
Q 1331 -91 842 396 
Q 353 884 353 1716 
Q 353 2575 817 3079 
Q 1281 3584 2069 3584 
Q 2775 3584 3186 3129 
Q 3597 2675 3597 1894 
z
M 3022 2063 
Q 3016 2534 2758 2815 
Q 2500 3097 2075 3097 
Q 1594 3097 1305 2825 
Q 1016 2553 972 2059 
L 3022 2063 
z
" transform="scale(0.015625)"/>
       <path id="DejaVuSans-73" d="M 2834 3397 
L 2834 2853 
Q 2591 2978 2328 3040 
Q 2066 3103 1784 3103 
Q 1356 3103 1142 2972 
Q 928 2841 928 2578 
Q 928 2378 1081 2264 
Q 1234 2150 1697 2047 
L 1894 2003 
Q 2506 1872 2764 1633 
Q 3022 1394 3022 966 
Q 3022 478 2636 193 
Q 2250 -91 1575 -91 
Q 1294 -91 989 -36 
Q 684 19 347 128 
L 347 722 
Q 666 556 975 473 
Q 1284 391 1588 391 
Q 1994 391 2212 530 
Q 2431 669 2431 922 
Q 2431 1156 2273 1281 
Q 2116 1406 1581 1522 
L 1381 1569 
Q 847 1681 609 1914 
Q 372 2147 372 2553 
Q 372 3047 722 3315 
Q 1072 3584 1716 3584 
Q 2034 3584 2315 3537 
Q 2597 3491 2834 3397 
z
" transform="scale(0.015625)"/>
       <path id="DejaVuSans-5b" d="M 550 4863 
L 1875 4863 
L 1875 4416 
L 1125 4416 
L 1125 -397 
L 1875 -397 
L 1875 -844 
L 550 -844 
L 550 4863 
z
" transform="scale(0.015625)"/>
       <path id="DejaVuSans-Oblique-3bc" d="M -84 -1331 
L 856 3500 
L 1434 3500 
L 1009 1322 
Q 997 1256 987 1175 
Q 978 1094 978 1013 
Q 978 722 1161 565 
Q 1344 409 1684 409 
Q 2147 409 2431 671 
Q 2716 934 2816 1459 
L 3213 3500 
L 3788 3500 
L 3266 809 
Q 3253 750 3248 706 
Q 3244 663 3244 628 
Q 3244 531 3283 486 
Q 3322 441 3406 441 
Q 3438 441 3492 456 
Q 3547 472 3647 513 
L 3559 50 
Q 3422 -19 3297 -55 
Q 3172 -91 3053 -91 
Q 2847 -91 2730 40 
Q 2613 172 2613 403 
Q 2438 153 2195 31 
Q 1953 -91 1625 -91 
Q 1334 -91 1117 43 
Q 900 178 831 397 
L 494 -1331 
L -84 -1331 
z
" transform="scale(0.015625)"/>
       <path id="DejaVuSans-6d" d="M 3328 2828 
Q 3544 3216 3844 3400 
Q 4144 3584 4550 3584 
Q 5097 3584 5394 3201 
Q 5691 2819 5691 2113 
L 5691 0 
L 5113 0 
L 5113 2094 
Q 5113 2597 4934 2840 
Q 4756 3084 4391 3084 
Q 3944 3084 3684 2787 
Q 3425 2491 3425 1978 
L 3425 0 
L 2847 0 
L 2847 2094 
Q 2847 2600 2669 2842 
Q 2491 3084 2119 3084 
Q 1678 3084 1418 2786 
Q 1159 2488 1159 1978 
L 1159 0 
L 581 0 
L 581 3500 
L 1159 3500 
L 1159 2956 
Q 1356 3278 1631 3431 
Q 1906 3584 2284 3584 
Q 2666 3584 2933 3390 
Q 3200 3197 3328 2828 
z
" transform="scale(0.015625)"/>
       <path id="DejaVuSans-5d" d="M 1947 4863 
L 1947 -844 
L 622 -844 
L 622 -397 
L 1369 -397 
L 1369 4416 
L 622 4416 
L 622 4863 
L 1947 4863 
z
" transform="scale(0.015625)"/>
      </defs>
      <use xlink:href="#DejaVuSans-58" transform="translate(0 0.015625)"/>
      <use xlink:href="#DejaVuSans-20" transform="translate(68.505859 0.015625)"/>
      <use xlink:href="#DejaVuSans-63" transform="translate(100.292969 0.015625)"/>
      <use xlink:href="#DejaVuSans-6f" transform="translate(155.273438 0.015625)"/>
      <use xlink:href="#DejaVuSans-6f" transform="translate(216.455078 0.015625)"/>
      <use xlink:href="#DejaVuSans-72" transform="translate(277.636719 0.015625)"/>
      <use xlink:href="#DejaVuSans-64" transform="translate(318.75 0.015625)"/>
      <use xlink:href="#DejaVuSans-69" transform="translate(382.226562 0.015625)"/>
      <use xlink:href="#DejaVuSans-6e" transform="translate(410.009766 0.015625)"/>
      <use xlink:href="#DejaVuSans-61" transform="translate(473.388672 0.015625)"/>
      <use xlink:href="#DejaVuSans-74" transform="translate(534.667969 0.015625)"/>
      <use xlink:href="#DejaVuSans-65" transform="translate(573.876953 0.015625)"/>
      <use xlink:href="#DejaVuSans-73" transform="translate(635.400391 0.015625)"/>
      <use xlink:href="#DejaVuSans-20" transform="translate(687.5 0.015625)"/>
      <use xlink:href="#DejaVuSans-5b" transform="translate(719.287109 0.015625)"/>
      <use xlink:href="#DejaVuSans-Oblique-3bc" transform="translate(758.300781 0.015625)"/>
      <use xlink:href="#DejaVuSans-6d" transform="translate(821.923828 0.015625)"/>
      <use xlink:href="#DejaVuSans-5d" transform="translate(919.335938 0.015625)"/>
     </g>
    </g>
   </g>
   <g id="matplotlib.axis_2">
    <g id="ytick_1">
     <g id="line2d_15">
      <path d="M 90 299.465455 
L 343.636364 299.465455 
" clip-path="url(#p33276d82ad)" style="fill: none; stroke-dasharray: 2.96,1.28; stroke-dashoffset: 0; stroke: #d3d3d3; stroke-width: 0.8"/>
     </g>
     <g id="line2d_16">
      <defs>
       <path id="m574f82922e" d="M 0 0 
L -3.5 0 
" style="stroke: #000000; stroke-width: 0.8"/>
      </defs>
      <g>
       <use xlink:href="#m574f82922e" x="90" y="299.465455" style="stroke: #000000; stroke-width: 0.8"/>
      </g>
     </g>
     <g id="text_9">
      <!-- −10 -->
      <g transform="translate(61.895313 303.264673)scale(0.1 -0.1)">
       <use xlink:href="#DejaVuSans-2212"/>
       <use xlink:href="#DejaVuSans-31" x="83.789062"/>
       <use xlink:href="#DejaVuSans-30" x="147.412109"/>
      </g>
     </g>
    </g>
    <g id="ytick_2">
     <g id="line2d_17">
      <path d="M 90 257.192727 
L 343.636364 257.192727 
" clip-path="url(#p33276d82ad)" style="fill: none; stroke-dasharray: 2.96,1.28; stroke-dashoffset: 0; stroke: #d3d3d3; stroke-width: 0.8"/>
     </g>
     <g id="line2d_18">
      <g>
       <use xlink:href="#m574f82922e" x="90" y="257.192727" style="stroke: #000000; stroke-width: 0.8"/>
      </g>
     </g>
     <g id="text_10">
      <!-- −5 -->
      <g transform="translate(68.257812 260.991946)scale(0.1 -0.1)">
       <use xlink:href="#DejaVuSans-2212"/>
       <use xlink:href="#DejaVuSans-35" x="83.789062"/>
      </g>
     </g>
    </g>
    <g id="ytick_3">
     <g id="line2d_19">
      <path d="M 90 214.92 
L 343.636364 214.92 
" clip-path="url(#p33276d82ad)" style="fill: none; stroke-dasharray: 2.96,1.28; stroke-dashoffset: 0; stroke: #d3d3d3; stroke-width: 0.8"/>
     </g>
     <g id="line2d_20">
      <g>
       <use xlink:href="#m574f82922e" x="90" y="214.92" style="stroke: #000000; stroke-width: 0.8"/>
      </g>
     </g>
     <g id="text_11">
      <!-- 0 -->
      <g transform="translate(76.6375 218.719219)scale(0.1 -0.1)">
       <use xlink:href="#DejaVuSans-30"/>
      </g>
     </g>
    </g>
    <g id="ytick_4">
     <g id="line2d_21">
      <path d="M 90 172.647273 
L 343.636364 172.647273 
" clip-path="url(#p33276d82ad)" style="fill: none; stroke-dasharray: 2.96,1.28; stroke-dashoffset: 0; stroke: #d3d3d3; stroke-width: 0.8"/>
     </g>
     <g id="line2d_22">
      <g>
       <use xlink:href="#m574f82922e" x="90" y="172.647273" style="stroke: #000000; stroke-width: 0.8"/>
      </g>
     </g>
     <g id="text_12">
      <!-- 5 -->
      <g transform="translate(76.6375 176.446491)scale(0.1 -0.1)">
       <use xlink:href="#DejaVuSans-35"/>
      </g>
     </g>
    </g>
    <g id="ytick_5">
     <g id="line2d_23">
      <path d="M 90 130.374545 
L 343.636364 130.374545 
" clip-path="url(#p33276d82ad)" style="fill: none; stroke-dasharray: 2.96,1.28; stroke-dashoffset: 0; stroke: #d3d3d3; stroke-width: 0.8"/>
     </g>
     <g id="line2d_24">
      <g>
       <use xlink:href="#m574f82922e" x="90" y="130.374545" style="stroke: #000000; stroke-width: 0.8"/>
      </g>
     </g>
     <g id="text_13">
      <!-- 10 -->
      <g transform="translate(70.275 134.173764)scale(0.1 -0.1)">
       <use xlink:href="#DejaVuSans-31"/>
       <use xlink:href="#DejaVuSans-30" x="63.623047"/>
      </g>
     </g>
    </g>
    <g id="text_14">
     <!-- Y coordinates [$\mu$m] -->
     <g transform="translate(49.165312 276.735)rotate(-90)scale(0.13 -0.13)">
      <defs>
       <path id="DejaVuSans-59" d="M -13 4666 
L 666 4666 
L 1959 2747 
L 3244 4666 
L 3922 4666 
L 2272 2222 
L 2272 0 
L 1638 0 
L 1638 2222 
L -13 4666 
z
" transform="scale(0.015625)"/>
      </defs>
      <use xlink:href="#DejaVuSans-59" transform="translate(0 0.015625)"/>
      <use xlink:href="#DejaVuSans-20" transform="translate(61.083984 0.015625)"/>
      <use xlink:href="#DejaVuSans-63" transform="translate(92.871094 0.015625)"/>
      <use xlink:href="#DejaVuSans-6f" transform="translate(147.851562 0.015625)"/>
      <use xlink:href="#DejaVuSans-6f" transform="translate(209.033203 0.015625)"/>
      <use xlink:href="#DejaVuSans-72" transform="translate(270.214844 0.015625)"/>
      <use xlink:href="#DejaVuSans-64" transform="translate(311.328125 0.015625)"/>
      <use xlink:href="#DejaVuSans-69" transform="translate(374.804688 0.015625)"/>
      <use xlink:href="#DejaVuSans-6e" transform="translate(402.587891 0.015625)"/>
      <use xlink:href="#DejaVuSans-61" transform="translate(465.966797 0.015625)"/>
      <use xlink:href="#DejaVuSans-74" transform="translate(527.246094 0.015625)"/>
      <use xlink:href="#DejaVuSans-65" transform="translate(566.455078 0.015625)"/>
      <use xlink:href="#DejaVuSans-73" transform="translate(627.978516 0.015625)"/>
      <use xlink:href="#DejaVuSans-20" transform="translate(680.078125 0.015625)"/>
      <use xlink:href="#DejaVuSans-5b" transform="translate(711.865234 0.015625)"/>
      <use xlink:href="#DejaVuSans-Oblique-3bc" transform="translate(750.878906 0.015625)"/>
      <use xlink:href="#DejaVuSans-6d" transform="translate(814.501953 0.015625)"/>
      <use xlink:href="#DejaVuSans-5d" transform="translate(911.914062 0.015625)"/>
     </g>
    </g>
   </g>
   <g id="patch_3">
    <path d="M 191.454545 282.556364 
C 209.391919 282.556364 226.597039 275.42977 239.280677 262.746131 
C 251.964315 250.062493 259.090909 232.857373 259.090909 214.92 
C 259.090909 196.982627 251.964315 179.777507 239.280677 167.093869 
C 226.597039 154.41023 209.391919 147.283636 191.454545 147.283636 
C 173.517172 147.283636 156.312052 154.41023 143.628414 167.093869 
C 130.944776 179.777507 123.818182 196.982627 123.818182 214.92 
C 123.818182 232.857373 130.944776 250.062493 143.628414 262.746131 
C 156.312052 275.42977 173.517172 282.556364 191.454545 282.556364 
z
" clip-path="url(#p33276d82ad)" style="fill: #fa8072; stroke: #b22222; stroke-linejoin: miter"/>
   </g>
   <g id="patch_4">
    <path d="M 276 278.329091 
L 292.909091 278.329091 
L 292.909091 151.510909 
L 276 151.510909 
z
" clip-path="url(#p33276d82ad)" style="fill: #ffe4b5; stroke: #bdb76b; stroke-linejoin: miter"/>
   </g>
   <g id="line2d_25">
    <path d="M 284.454545 278.329091 
L 284.454545 151.510909 
" clip-path="url(#p33276d82ad)" style="fill: none; stroke-dasharray: 5.55,2.4; stroke-dashoffset: 0; stroke: #bdb76b; stroke-width: 1.5"/>
   </g>
   <g id="patch_5">
    <path d="M 191.454545 299.465455 
C 213.876262 299.465455 235.382662 290.557212 251.23721 274.702664 
C 267.091758 258.848116 276 237.341717 276 214.92 
C 276 192.498283 267.091758 170.991884 251.23721 155.137336 
C 235.382662 139.282788 213.876262 130.374545 191.454545 130.374545 
C 169.032829 130.374545 147.526429 139.282788 131.671881 155.137336 
C 115.817333 170.991884 106.909091 192.498283 106.909091 214.92 
C 106.909091 237.341717 115.817333 258.848116 131.671881 274.702664 
C 147.526429 290.557212 169.032829 299.465455 191.454545 299.465455 
L 191.454545 299.465455 
z
" clip-path="url(#p33276d82ad)" style="fill: none; stroke-dasharray: 3.7,1.6; stroke-dashoffset: 0; stroke: #000000; stroke-linejoin: miter"/>
   </g>
   <g id="patch_6">
    <path d="M 284.454545 231.829091 
C 288.938889 231.829091 293.240169 230.047442 296.411078 226.876533 
C 299.581988 223.705623 301.363636 219.404343 301.363636 214.92 
C 301.363636 210.435657 299.581988 206.134377 296.411078 202.963467 
C 293.240169 199.792558 288.938889 198.010909 284.454545 198.010909 
C 279.970202 198.010909 275.668922 199.792558 272.498013 202.963467 
C 269.327103 206.134377 267.545455 210.435657 267.545455 214.92 
C 267.545455 219.404343 269.327103 223.705623 272.498013 226.876533 
C 275.668922 230.047442 279.970202 231.829091 284.454545 231.829091 
L 284.454545 231.829091 
z
" clip-path="url(#p33276d82ad)" style="fill: none; stroke-dasharray: 3.7,1.6; stroke-dashoffset: 0; stroke: #000000; stroke-linejoin: miter"/>
   </g>
   <g id="patch_7">
    <path d="M 191.454545 216.610909 
C 191.90298 216.610909 192.333108 216.432744 192.650199 216.115653 
C 192.96729 215.798562 193.145455 215.368434 193.145455 214.92 
C 193.145455 214.471566 192.96729 214.041438 192.650199 213.724347 
C 192.333108 213.407256 191.90298 213.229091 191.454545 213.229091 
C 191.006111 213.229091 190.575983 213.407256 190.258892 213.724347 
C 189.941801 214.041438 189.763636 214.471566 189.763636 214.92 
C 189.763636 215.368434 189.941801 215.798562 190.258892 216.115653 
C 190.575983 216.432744 191.006111 216.610909 191.454545 216.610909 
z
" clip-path="url(#p33276d82ad)"/>
   </g>
   <g id="patch_8">
    <path d="M 284.454545 216.610909 
C 284.90298 216.610909 285.333108 216.432744 285.650199 216.115653 
C 285.96729 215.798562 286.145455 215.368434 286.145455 214.92 
C 286.145455 214.471566 285.96729 214.041438 285.650199 213.724347 
C 285.333108 213.407256 284.90298 213.229091 284.454545 213.229091 
C 284.006111 213.229091 283.575983 213.407256 283.258892 213.724347 
C 282.941801 214.041438 282.763636 214.471566 282.763636 214.92 
C 282.763636 215.368434 282.941801 215.798562 283.258892 216.115653 
C 283.575983 216.432744 284.006111 216.610909 284.454545 216.610909 
z
" clip-path="url(#p33276d82ad)"/>
   </g>
   <g id="patch_9">
    <path d="M 284.454545 214.074545 
L 284.454545 215.765455 
L 321.654545 215.765455 
L 321.654545 217.456364 
L 330.954545 214.92 
L 321.654545 212.383636 
L 321.654545 214.074545 
z
" clip-path="url(#p33276d82ad)" style="fill: #808080"/>
   </g>
   <g id="patch_10">
    <path d="M 284.454545 277.483636 
L 284.454545 279.174545 
L 303.054545 279.174545 
L 303.054545 280.865455 
L 307.704545 278.329091 
L 303.054545 275.792727 
L 303.054545 277.483636 
z
" clip-path="url(#p33276d82ad)"/>
   </g>
   <g id="patch_11">
    <path d="M 284.454545 150.665455 
L 284.454545 152.356364 
L 303.054545 152.356364 
L 303.054545 154.047273 
L 307.704545 151.510909 
L 303.054545 148.974545 
L 303.054545 150.665455 
z
" clip-path="url(#p33276d82ad)"/>
   </g>
   <g id="patch_12">
    <path d="M 191.454545 215.765455 
L 191.454545 214.074545 
L 154.254545 214.074545 
L 154.254545 212.383636 
L 144.954545 214.92 
L 154.254545 217.456364 
L 154.254545 215.765455 
z
" clip-path="url(#p33276d82ad)"/>
   </g>
   <g id="patch_13">
    <path d="M 90 333.283636 
L 90 96.556364 
" style="fill: none; stroke: #000000; stroke-width: 0.8; stroke-linejoin: miter; stroke-linecap: square"/>
   </g>
   <g id="patch_14">
    <path d="M 343.636364 333.283636 
L 343.636364 96.556364 
" style="fill: none; stroke: #000000; stroke-width: 0.8; stroke-linejoin: miter; stroke-linecap: square"/>
   </g>
   <g id="patch_15">
    <path d="M 90 333.283636 
L 343.636364 333.283636 
" style="fill: none; stroke: #000000; stroke-width: 0.8; stroke-linejoin: miter; stroke-linecap: square"/>
   </g>
   <g id="patch_16">
    <path d="M 90 96.556364 
L 343.636364 96.556364 
" style="fill: none; stroke: #000000; stroke-width: 0.8; stroke-linejoin: miter; stroke-linecap: square"/>
   </g>
   <g id="text_15">
    <!-- Closest point on axis: center -->
    <g transform="translate(116.983963 78.72)scale(0.14 -0.14)">
     <defs>
      <path id="DejaVuSans-43" d="M 4122 4306 
L 4122 3641 
Q 3803 3938 3442 4084 
Q 3081 4231 2675 4231 
Q 1875 4231 1450 3742 
Q 1025 3253 1025 2328 
Q 1025 1406 1450 917 
Q 1875 428 2675 428 
Q 3081 428 3442 575 
Q 3803 722 4122 1019 
L 4122 359 
Q 3791 134 3420 21 
Q 3050 -91 2638 -91 
Q 1578 -91 968 557 
Q 359 1206 359 2328 
Q 359 3453 968 4101 
Q 1578 4750 2638 4750 
Q 3056 4750 3426 4639 
Q 3797 4528 4122 4306 
z
" transform="scale(0.015625)"/>
      <path id="DejaVuSans-6c" d="M 603 4863 
L 1178 4863 
L 1178 0 
L 603 0 
L 603 4863 
z
" transform="scale(0.015625)"/>
      <path id="DejaVuSans-70" d="M 1159 525 
L 1159 -1331 
L 581 -1331 
L 581 3500 
L 1159 3500 
L 1159 2969 
Q 1341 3281 1617 3432 
Q 1894 3584 2278 3584 
Q 2916 3584 3314 3078 
Q 3713 2572 3713 1747 
Q 3713 922 3314 415 
Q 2916 -91 2278 -91 
Q 1894 -91 1617 61 
Q 1341 213 1159 525 
z
M 3116 1747 
Q 3116 2381 2855 2742 
Q 2594 3103 2138 3103 
Q 1681 3103 1420 2742 
Q 1159 2381 1159 1747 
Q 1159 1113 1420 752 
Q 1681 391 2138 391 
Q 2594 391 2855 752 
Q 3116 1113 3116 1747 
z
" transform="scale(0.015625)"/>
      <path id="DejaVuSans-78" d="M 3513 3500 
L 2247 1797 
L 3578 0 
L 2900 0 
L 1881 1375 
L 863 0 
L 184 0 
L 1544 1831 
L 300 3500 
L 978 3500 
L 1906 2253 
L 2834 3500 
L 3513 3500 
z
" transform="scale(0.015625)"/>
      <path id="DejaVuSans-3a" d="M 750 794 
L 1409 794 
L 1409 0 
L 750 0 
L 750 794 
z
M 750 3309 
L 1409 3309 
L 1409 2516 
L 750 2516 
L 750 3309 
z
" transform="scale(0.015625)"/>
     </defs>
     <use xlink:href="#DejaVuSans-43"/>
     <use xlink:href="#DejaVuSans-6c" x="69.824219"/>
     <use xlink:href="#DejaVuSans-6f" x="97.607422"/>
     <use xlink:href="#DejaVuSans-73" x="158.789062"/>
     <use xlink:href="#DejaVuSans-65" x="210.888672"/>
     <use xlink:href="#DejaVuSans-73" x="272.412109"/>
     <use xlink:href="#DejaVuSans-74" x="324.511719"/>
     <use xlink:href="#DejaVuSans-20" x="363.720703"/>
     <use xlink:href="#DejaVuSans-70" x="395.507812"/>
     <use xlink:href="#DejaVuSans-6f" x="458.984375"/>
     <use xlink:href="#DejaVuSans-69" x="520.166016"/>
     <use xlink:href="#DejaVuSans-6e" x="547.949219"/>
     <use xlink:href="#DejaVuSans-74" x="611.328125"/>
     <use xlink:href="#DejaVuSans-20" x="650.537109"/>
     <use xlink:href="#DejaVuSans-6f" x="682.324219"/>
     <use xlink:href="#DejaVuSans-6e" x="743.505859"/>
     <use xlink:href="#DejaVuSans-20" x="806.884766"/>
     <use xlink:href="#DejaVuSans-61" x="838.671875"/>
     <use xlink:href="#DejaVuSans-78" x="899.951172"/>
     <use xlink:href="#DejaVuSans-69" x="959.130859"/>
     <use xlink:href="#DejaVuSans-73" x="986.914062"/>
     <use xlink:href="#DejaVuSans-3a" x="1039.013672"/>
     <use xlink:href="#DejaVuSans-20" x="1072.705078"/>
     <use xlink:href="#DejaVuSans-63" x="1104.492188"/>
     <use xlink:href="#DejaVuSans-65" x="1159.472656"/>
     <use xlink:href="#DejaVuSans-6e" x="1220.996094"/>
     <use xlink:href="#DejaVuSans-74" x="1284.375"/>
     <use xlink:href="#DejaVuSans-65" x="1323.583984"/>
     <use xlink:href="#DejaVuSans-72" x="1385.107422"/>
    </g>
   </g>
  </g>
  <g id="axes_2">
   <g id="patch_17">
    <path d="M 394.363636 333.283636 
L 648 333.283636 
L 648 96.556364 
L 394.363636 96.556364 
z
" style="fill: #ffffff"/>
   </g>
   <g id="matplotlib.axis_3">
    <g id="xtick_8">
     <g id="line2d_26">
      <path d="M 394.363636 333.283636 
L 394.363636 96.556364 
" clip-path="url(#p5b94987eb4)" style="fill: none; stroke-dasharray: 2.96,1.28; stroke-dashoffset: 0; stroke: #d3d3d3; stroke-width: 0.8"/>
     </g>
     <g id="line2d_27">
      <g>
       <use xlink:href="#md28076ca65" x="394.363636" y="333.283636" style="stroke: #000000; stroke-width: 0.8"/>
      </g>
     </g>
     <g id="text_16">
      <!-- −15 -->
      <g transform="translate(383.811293 347.882074)scale(0.1 -0.1)">
       <use xlink:href="#DejaVuSans-2212"/>
       <use xlink:href="#DejaVuSans-31" x="83.789062"/>
       <use xlink:href="#DejaVuSans-35" x="147.412109"/>
      </g>
     </g>
    </g>
    <g id="xtick_9">
     <g id="line2d_28">
      <path d="M 436.636364 333.283636 
L 436.636364 96.556364 
" clip-path="url(#p5b94987eb4)" style="fill: none; stroke-dasharray: 2.96,1.28; stroke-dashoffset: 0; stroke: #d3d3d3; stroke-width: 0.8"/>
     </g>
     <g id="line2d_29">
      <g>
       <use xlink:href="#md28076ca65" x="436.636364" y="333.283636" style="stroke: #000000; stroke-width: 0.8"/>
      </g>
     </g>
     <g id="text_17">
      <!-- −10 -->
      <g transform="translate(426.08402 347.882074)scale(0.1 -0.1)">
       <use xlink:href="#DejaVuSans-2212"/>
       <use xlink:href="#DejaVuSans-31" x="83.789062"/>
       <use xlink:href="#DejaVuSans-30" x="147.412109"/>
      </g>
     </g>
    </g>
    <g id="xtick_10">
     <g id="line2d_30">
      <path d="M 478.909091 333.283636 
L 478.909091 96.556364 
" clip-path="url(#p5b94987eb4)" style="fill: none; stroke-dasharray: 2.96,1.28; stroke-dashoffset: 0; stroke: #d3d3d3; stroke-width: 0.8"/>
     </g>
     <g id="line2d_31">
      <g>
       <use xlink:href="#md28076ca65" x="478.909091" y="333.283636" style="stroke: #000000; stroke-width: 0.8"/>
      </g>
     </g>
     <g id="text_18">
      <!-- −5 -->
      <g transform="translate(471.537997 347.882074)scale(0.1 -0.1)">
       <use xlink:href="#DejaVuSans-2212"/>
       <use xlink:href="#DejaVuSans-35" x="83.789062"/>
      </g>
     </g>
    </g>
    <g id="xtick_11">
     <g id="line2d_32">
      <path d="M 521.181818 333.283636 
L 521.181818 96.556364 
" clip-path="url(#p5b94987eb4)" style="fill: none; stroke-dasharray: 2.96,1.28; stroke-dashoffset: 0; stroke: #d3d3d3; stroke-width: 0.8"/>
     </g>
     <g id="line2d_33">
      <g>
       <use xlink:href="#md28076ca65" x="521.181818" y="333.283636" style="stroke: #000000; stroke-width: 0.8"/>
      </g>
     </g>
     <g id="text_19">
      <!-- 0 -->
      <g transform="translate(518.000568 347.882074)scale(0.1 -0.1)">
       <use xlink:href="#DejaVuSans-30"/>
      </g>
     </g>
    </g>
    <g id="xtick_12">
     <g id="line2d_34">
      <path d="M 563.454545 333.283636 
L 563.454545 96.556364 
" clip-path="url(#p5b94987eb4)" style="fill: none; stroke-dasharray: 2.96,1.28; stroke-dashoffset: 0; stroke: #d3d3d3; stroke-width: 0.8"/>
     </g>
     <g id="line2d_35">
      <g>
       <use xlink:href="#md28076ca65" x="563.454545" y="333.283636" style="stroke: #000000; stroke-width: 0.8"/>
      </g>
     </g>
     <g id="text_20">
      <!-- 5 -->
      <g transform="translate(560.273295 347.882074)scale(0.1 -0.1)">
       <use xlink:href="#DejaVuSans-35"/>
      </g>
     </g>
    </g>
    <g id="xtick_13">
     <g id="line2d_36">
      <path d="M 605.727273 333.283636 
L 605.727273 96.556364 
" clip-path="url(#p5b94987eb4)" style="fill: none; stroke-dasharray: 2.96,1.28; stroke-dashoffset: 0; stroke: #d3d3d3; stroke-width: 0.8"/>
     </g>
     <g id="line2d_37">
      <g>
       <use xlink:href="#md28076ca65" x="605.727273" y="333.283636" style="stroke: #000000; stroke-width: 0.8"/>
      </g>
     </g>
     <g id="text_21">
      <!-- 10 -->
      <g transform="translate(599.364773 347.882074)scale(0.1 -0.1)">
       <use xlink:href="#DejaVuSans-31"/>
       <use xlink:href="#DejaVuSans-30" x="63.623047"/>
      </g>
     </g>
    </g>
    <g id="xtick_14">
     <g id="line2d_38">
      <path d="M 648 333.283636 
L 648 96.556364 
" clip-path="url(#p5b94987eb4)" style="fill: none; stroke-dasharray: 2.96,1.28; stroke-dashoffset: 0; stroke: #d3d3d3; stroke-width: 0.8"/>
     </g>
     <g id="line2d_39">
      <g>
       <use xlink:href="#md28076ca65" x="648" y="333.283636" style="stroke: #000000; stroke-width: 0.8"/>
      </g>
     </g>
     <g id="text_22">
      <!-- 15 -->
      <g transform="translate(641.6375 347.882074)scale(0.1 -0.1)">
       <use xlink:href="#DejaVuSans-31"/>
       <use xlink:href="#DejaVuSans-35" x="63.623047"/>
      </g>
     </g>
    </g>
    <g id="text_23">
     <!-- X coordinates [$\mu$m] -->
     <g transform="translate(458.846818 369.841761)scale(0.13 -0.13)">
      <use xlink:href="#DejaVuSans-58" transform="translate(0 0.015625)"/>
      <use xlink:href="#DejaVuSans-20" transform="translate(68.505859 0.015625)"/>
      <use xlink:href="#DejaVuSans-63" transform="translate(100.292969 0.015625)"/>
      <use xlink:href="#DejaVuSans-6f" transform="translate(155.273438 0.015625)"/>
      <use xlink:href="#DejaVuSans-6f" transform="translate(216.455078 0.015625)"/>
      <use xlink:href="#DejaVuSans-72" transform="translate(277.636719 0.015625)"/>
      <use xlink:href="#DejaVuSans-64" transform="translate(318.75 0.015625)"/>
      <use xlink:href="#DejaVuSans-69" transform="translate(382.226562 0.015625)"/>
      <use xlink:href="#DejaVuSans-6e" transform="translate(410.009766 0.015625)"/>
      <use xlink:href="#DejaVuSans-61" transform="translate(473.388672 0.015625)"/>
      <use xlink:href="#DejaVuSans-74" transform="translate(534.667969 0.015625)"/>
      <use xlink:href="#DejaVuSans-65" transform="translate(573.876953 0.015625)"/>
      <use xlink:href="#DejaVuSans-73" transform="translate(635.400391 0.015625)"/>
      <use xlink:href="#DejaVuSans-20" transform="translate(687.5 0.015625)"/>
      <use xlink:href="#DejaVuSans-5b" transform="translate(719.287109 0.015625)"/>
      <use xlink:href="#DejaVuSans-Oblique-3bc" transform="translate(758.300781 0.015625)"/>
      <use xlink:href="#DejaVuSans-6d" transform="translate(821.923828 0.015625)"/>
      <use xlink:href="#DejaVuSans-5d" transform="translate(919.335938 0.015625)"/>
     </g>
    </g>
   </g>
   <g id="matplotlib.axis_4">
    <g id="ytick_6">
     <g id="line2d_40">
      <path d="M 394.363636 299.465455 
L 648 299.465455 
" clip-path="url(#p5b94987eb4)" style="fill: none; stroke-dasharray: 2.96,1.28; stroke-dashoffset: 0; stroke: #d3d3d3; stroke-width: 0.8"/>
     </g>
     <g id="line2d_41">
      <g>
       <use xlink:href="#m574f82922e" x="394.363636" y="299.465455" style="stroke: #000000; stroke-width: 0.8"/>
      </g>
     </g>
     <g id="text_24">
      <!-- −10 -->
      <g transform="translate(366.258949 303.264673)scale(0.1 -0.1)">
       <use xlink:href="#DejaVuSans-2212"/>
       <use xlink:href="#DejaVuSans-31" x="83.789062"/>
       <use xlink:href="#DejaVuSans-30" x="147.412109"/>
      </g>
     </g>
    </g>
    <g id="ytick_7">
     <g id="line2d_42">
      <path d="M 394.363636 257.192727 
L 648 257.192727 
" clip-path="url(#p5b94987eb4)" style="fill: none; stroke-dasharray: 2.96,1.28; stroke-dashoffset: 0; stroke: #d3d3d3; stroke-width: 0.8"/>
     </g>
     <g id="line2d_43">
      <g>
       <use xlink:href="#m574f82922e" x="394.363636" y="257.192727" style="stroke: #000000; stroke-width: 0.8"/>
      </g>
     </g>
     <g id="text_25">
      <!-- −5 -->
      <g transform="translate(372.621449 260.991946)scale(0.1 -0.1)">
       <use xlink:href="#DejaVuSans-2212"/>
       <use xlink:href="#DejaVuSans-35" x="83.789062"/>
      </g>
     </g>
    </g>
    <g id="ytick_8">
     <g id="line2d_44">
      <path d="M 394.363636 214.92 
L 648 214.92 
" clip-path="url(#p5b94987eb4)" style="fill: none; stroke-dasharray: 2.96,1.28; stroke-dashoffset: 0; stroke: #d3d3d3; stroke-width: 0.8"/>
     </g>
     <g id="line2d_45">
      <g>
       <use xlink:href="#m574f82922e" x="394.363636" y="214.92" style="stroke: #000000; stroke-width: 0.8"/>
      </g>
     </g>
     <g id="text_26">
      <!-- 0 -->
      <g transform="translate(381.001136 218.719219)scale(0.1 -0.1)">
       <use xlink:href="#DejaVuSans-30"/>
      </g>
     </g>
    </g>
    <g id="ytick_9">
     <g id="line2d_46">
      <path d="M 394.363636 172.647273 
L 648 172.647273 
" clip-path="url(#p5b94987eb4)" style="fill: none; stroke-dasharray: 2.96,1.28; stroke-dashoffset: 0; stroke: #d3d3d3; stroke-width: 0.8"/>
     </g>
     <g id="line2d_47">
      <g>
       <use xlink:href="#m574f82922e" x="394.363636" y="172.647273" style="stroke: #000000; stroke-width: 0.8"/>
      </g>
     </g>
     <g id="text_27">
      <!-- 5 -->
      <g transform="translate(381.001136 176.446491)scale(0.1 -0.1)">
       <use xlink:href="#DejaVuSans-35"/>
      </g>
     </g>
    </g>
    <g id="ytick_10">
     <g id="line2d_48">
      <path d="M 394.363636 130.374545 
L 648 130.374545 
" clip-path="url(#p5b94987eb4)" style="fill: none; stroke-dasharray: 2.96,1.28; stroke-dashoffset: 0; stroke: #d3d3d3; stroke-width: 0.8"/>
     </g>
     <g id="line2d_49">
      <g>
       <use xlink:href="#m574f82922e" x="394.363636" y="130.374545" style="stroke: #000000; stroke-width: 0.8"/>
      </g>
     </g>
     <g id="text_28">
      <!-- 10 -->
      <g transform="translate(374.638636 134.173764)scale(0.1 -0.1)">
       <use xlink:href="#DejaVuSans-31"/>
       <use xlink:href="#DejaVuSans-30" x="63.623047"/>
      </g>
     </g>
    </g>
   </g>
   <g id="patch_18">
    <path d="M 487.363636 261.42 
C 505.30101 261.42 522.506129 254.293406 535.189768 241.609768 
C 547.873406 228.926129 555 211.72101 555 193.783636 
C 555 175.846263 547.873406 158.641143 535.189768 145.957505 
C 522.506129 133.273867 505.30101 126.147273 487.363636 126.147273 
C 469.426263 126.147273 452.221143 133.273867 439.537505 145.957505 
C 426.853867 158.641143 419.727273 175.846263 419.727273 193.783636 
C 419.727273 211.72101 426.853867 228.926129 439.537505 241.609768 
C 452.221143 254.293406 469.426263 261.42 487.363636 261.42 
z
" clip-path="url(#p5b94987eb4)" style="fill: #fa8072; stroke: #b22222; stroke-linejoin: miter"/>
   </g>
   <g id="patch_19">
    <path d="M 512.727273 275.792727 
L 512.727273 292.701818 
L 639.545455 292.701818 
L 639.545455 275.792727 
z
" clip-path="url(#p5b94987eb4)" style="fill: #ffe4b5; stroke: #bdb76b; stroke-linejoin: miter"/>
   </g>
   <g id="line2d_50">
    <path d="M 512.727273 284.247273 
L 639.545455 284.247273 
" clip-path="url(#p5b94987eb4)" style="fill: none; stroke-dasharray: 5.55,2.4; stroke-dashoffset: 0; stroke: #bdb76b; stroke-width: 1.5"/>
   </g>
   <g id="patch_20">
    <path d="M 487.363636 278.329091 
C 509.785353 278.329091 531.291753 269.420848 547.146301 253.566301 
C 563.000848 237.711753 571.909091 216.205353 571.909091 193.783636 
C 571.909091 171.36192 563.000848 149.85552 547.146301 134.000972 
C 531.291753 118.146424 509.785353 109.238182 487.363636 109.238182 
C 464.94192 109.238182 443.43552 118.146424 427.580972 134.000972 
C 411.726424 149.85552 402.818182 171.36192 402.818182 193.783636 
C 402.818182 216.205353 411.726424 237.711753 427.580972 253.566301 
C 443.43552 269.420848 464.94192 278.329091 487.363636 278.329091 
L 487.363636 278.329091 
z
" clip-path="url(#p5b94987eb4)" style="fill: none; stroke-dasharray: 3.7,1.6; stroke-dashoffset: 0; stroke: #000000; stroke-linejoin: miter"/>
   </g>
   <g id="patch_21">
    <path d="M 512.727273 301.156364 
C 517.211616 301.156364 521.512896 299.374715 524.683806 296.203806 
C 527.854715 293.032896 529.636364 288.731616 529.636364 284.247273 
C 529.636364 279.762929 527.854715 275.461649 524.683806 272.29074 
C 521.512896 269.11983 517.211616 267.338182 512.727273 267.338182 
C 508.242929 267.338182 503.941649 269.11983 500.77074 272.29074 
C 497.59983 275.461649 495.818182 279.762929 495.818182 284.247273 
C 495.818182 288.731616 497.59983 293.032896 500.77074 296.203806 
C 503.941649 299.374715 508.242929 301.156364 512.727273 301.156364 
L 512.727273 301.156364 
z
" clip-path="url(#p5b94987eb4)" style="fill: none; stroke-dasharray: 3.7,1.6; stroke-dashoffset: 0; stroke: #000000; stroke-linejoin: miter"/>
   </g>
   <g id="patch_22">
    <path d="M 487.363636 195.474545 
C 487.812071 195.474545 488.242199 195.296381 488.55929 194.97929 
C 488.876381 194.662199 489.054545 194.232071 489.054545 193.783636 
C 489.054545 193.335202 488.876381 192.905074 488.55929 192.587983 
C 488.242199 192.270892 487.812071 192.092727 487.363636 192.092727 
C 486.915202 192.092727 486.485074 192.270892 486.167983 192.587983 
C 485.850892 192.905074 485.672727 193.335202 485.672727 193.783636 
C 485.672727 194.232071 485.850892 194.662199 486.167983 194.97929 
C 486.485074 195.296381 486.915202 195.474545 487.363636 195.474545 
z
" clip-path="url(#p5b94987eb4)"/>
   </g>
   <g id="patch_23">
    <path d="M 512.727273 285.938182 
C 513.175707 285.938182 513.605835 285.760017 513.922926 285.442926 
C 514.240017 285.125835 514.418182 284.695707 514.418182 284.247273 
C 514.418182 283.798838 514.240017 283.36871 513.922926 283.051619 
C 513.605835 282.734528 513.175707 282.556364 512.727273 282.556364 
C 512.278838 282.556364 511.84871 282.734528 511.531619 283.051619 
C 511.214528 283.36871 511.036364 283.798838 511.036364 284.247273 
C 511.036364 284.695707 511.214528 285.125835 511.531619 285.442926 
C 511.84871 285.760017 512.278838 285.938182 512.727273 285.938182 
z
" clip-path="url(#p5b94987eb4)"/>
   </g>
   <g id="patch_24">
    <path d="M 513.541336 284.019031 
L 511.913209 284.475515 
L 519.821485 312.681699 
L 518.193359 313.138183 
L 522.612618 319.505002 
L 523.077738 311.76873 
L 521.449612 312.225214 
z
" clip-path="url(#p5b94987eb4)" style="fill: #808080"/>
   </g>
   <g id="patch_25">
    <path d="M 513.541336 284.019031 
L 511.913209 284.475515 
L 519.821485 312.681699 
L 518.193359 313.138183 
L 522.612618 319.505002 
L 523.077738 311.76873 
L 521.449612 312.225214 
z
" clip-path="url(#p5b94987eb4)"/>
   </g>
   <g id="patch_26">
    <path d="M 639.545455 283.401818 
L 639.545455 285.092727 
L 639.545455 285.092727 
L 639.545455 286.783636 
L 639.545455 284.247273 
L 639.545455 281.710909 
L 639.545455 283.401818 
z
" clip-path="url(#p5b94987eb4)"/>
   </g>
   <g id="patch_27">
    <path d="M 486.549573 194.011878 
L 488.1777 193.555394 
L 480.269424 165.349211 
L 481.89755 164.892726 
L 477.478292 158.525907 
L 477.013171 166.262179 
L 478.641297 165.805695 
z
" clip-path="url(#p5b94987eb4)"/>
   </g>
   <g id="patch_28">
    <path d="M 394.363636 333.283636 
L 394.363636 96.556364 
" style="fill: none; stroke: #000000; stroke-width: 0.8; stroke-linejoin: miter; stroke-linecap: square"/>
   </g>
   <g id="patch_29">
    <path d="M 648 333.283636 
L 648 96.556364 
" style="fill: none; stroke: #000000; stroke-width: 0.8; stroke-linejoin: miter; stroke-linecap: square"/>
   </g>
   <g id="patch_30">
    <path d="M 394.363636 333.283636 
L 648 333.283636 
" style="fill: none; stroke: #000000; stroke-width: 0.8; stroke-linejoin: miter; stroke-linecap: square"/>
   </g>
   <g id="patch_31">
    <path d="M 394.363636 96.556364 
L 648 96.556364 
" style="fill: none; stroke: #000000; stroke-width: 0.8; stroke-linejoin: miter; stroke-linecap: square"/>
   </g>
   <g id="text_29">
    <!-- Closest point on axis: extremity -->
    <g transform="translate(410.119162 78.72)scale(0.14 -0.14)">
     <defs>
      <path id="DejaVuSans-79" d="M 2059 -325 
Q 1816 -950 1584 -1140 
Q 1353 -1331 966 -1331 
L 506 -1331 
L 506 -850 
L 844 -850 
Q 1081 -850 1212 -737 
Q 1344 -625 1503 -206 
L 1606 56 
L 191 3500 
L 800 3500 
L 1894 763 
L 2988 3500 
L 3597 3500 
L 2059 -325 
z
" transform="scale(0.015625)"/>
     </defs>
     <use xlink:href="#DejaVuSans-43"/>
     <use xlink:href="#DejaVuSans-6c" x="69.824219"/>
     <use xlink:href="#DejaVuSans-6f" x="97.607422"/>
     <use xlink:href="#DejaVuSans-73" x="158.789062"/>
     <use xlink:href="#DejaVuSans-65" x="210.888672"/>
     <use xlink:href="#DejaVuSans-73" x="272.412109"/>
     <use xlink:href="#DejaVuSans-74" x="324.511719"/>
     <use xlink:href="#DejaVuSans-20" x="363.720703"/>
     <use xlink:href="#DejaVuSans-70" x="395.507812"/>
     <use xlink:href="#DejaVuSans-6f" x="458.984375"/>
     <use xlink:href="#DejaVuSans-69" x="520.166016"/>
     <use xlink:href="#DejaVuSans-6e" x="547.949219"/>
     <use xlink:href="#DejaVuSans-74" x="611.328125"/>
     <use xlink:href="#DejaVuSans-20" x="650.537109"/>
     <use xlink:href="#DejaVuSans-6f" x="682.324219"/>
     <use xlink:href="#DejaVuSans-6e" x="743.505859"/>
     <use xlink:href="#DejaVuSans-20" x="806.884766"/>
     <use xlink:href="#DejaVuSans-61" x="838.671875"/>
     <use xlink:href="#DejaVuSans-78" x="899.951172"/>
     <use xlink:href="#DejaVuSans-69" x="959.130859"/>
     <use xlink:href="#DejaVuSans-73" x="986.914062"/>
     <use xlink:href="#DejaVuSans-3a" x="1039.013672"/>
     <use xlink:href="#DejaVuSans-20" x="1072.705078"/>
     <use xlink:href="#DejaVuSans-65" x="1104.492188"/>
     <use xlink:href="#DejaVuSans-78" x="1164.265625"/>
     <use xlink:href="#DejaVuSans-74" x="1223.445312"/>
     <use xlink:href="#DejaVuSans-72" x="1262.654297"/>
     <use xlink:href="#DejaVuSans-65" x="1301.517578"/>
     <use xlink:href="#DejaVuSans-6d" x="1363.041016"/>
     <use xlink:href="#DejaVuSans-69" x="1460.453125"/>
     <use xlink:href="#DejaVuSans-74" x="1488.236328"/>
     <use xlink:href="#DejaVuSans-79" x="1527.445312"/>
    </g>
   </g>
  </g>
  <g id="text_30">
   <!-- Interaction between a sphere and a cylinder (2D projection) -->
   <g transform="translate(150.135625 45.197812)scale(0.14 -0.14)">
    <defs>
     <path id="DejaVuSans-49" d="M 628 4666 
L 1259 4666 
L 1259 0 
L 628 0 
L 628 4666 
z
" transform="scale(0.015625)"/>
     <path id="DejaVuSans-62" d="M 3116 1747 
Q 3116 2381 2855 2742 
Q 2594 3103 2138 3103 
Q 1681 3103 1420 2742 
Q 1159 2381 1159 1747 
Q 1159 1113 1420 752 
Q 1681 391 2138 391 
Q 2594 391 2855 752 
Q 3116 1113 3116 1747 
z
M 1159 2969 
Q 1341 3281 1617 3432 
Q 1894 3584 2278 3584 
Q 2916 3584 3314 3078 
Q 3713 2572 3713 1747 
Q 3713 922 3314 415 
Q 2916 -91 2278 -91 
Q 1894 -91 1617 61 
Q 1341 213 1159 525 
L 1159 0 
L 581 0 
L 581 4863 
L 1159 4863 
L 1159 2969 
z
" transform="scale(0.015625)"/>
     <path id="DejaVuSans-77" d="M 269 3500 
L 844 3500 
L 1563 769 
L 2278 3500 
L 2956 3500 
L 3675 769 
L 4391 3500 
L 4966 3500 
L 4050 0 
L 3372 0 
L 2619 2869 
L 1863 0 
L 1184 0 
L 269 3500 
z
" transform="scale(0.015625)"/>
     <path id="DejaVuSans-68" d="M 3513 2113 
L 3513 0 
L 2938 0 
L 2938 2094 
Q 2938 2591 2744 2837 
Q 2550 3084 2163 3084 
Q 1697 3084 1428 2787 
Q 1159 2491 1159 1978 
L 1159 0 
L 581 0 
L 581 4863 
L 1159 4863 
L 1159 2956 
Q 1366 3272 1645 3428 
Q 1925 3584 2291 3584 
Q 2894 3584 3203 3211 
Q 3513 2838 3513 2113 
z
" transform="scale(0.015625)"/>
     <path id="DejaVuSans-28" d="M 1984 4856 
Q 1566 4138 1362 3434 
Q 1159 2731 1159 2009 
Q 1159 1288 1364 580 
Q 1569 -128 1984 -844 
L 1484 -844 
Q 1016 -109 783 600 
Q 550 1309 550 2009 
Q 550 2706 781 3412 
Q 1013 4119 1484 4856 
L 1984 4856 
z
" transform="scale(0.015625)"/>
     <path id="DejaVuSans-32" d="M 1228 531 
L 3431 531 
L 3431 0 
L 469 0 
L 469 531 
Q 828 903 1448 1529 
Q 2069 2156 2228 2338 
Q 2531 2678 2651 2914 
Q 2772 3150 2772 3378 
Q 2772 3750 2511 3984 
Q 2250 4219 1831 4219 
Q 1534 4219 1204 4116 
Q 875 4013 500 3803 
L 500 4441 
Q 881 4594 1212 4672 
Q 1544 4750 1819 4750 
Q 2544 4750 2975 4387 
Q 3406 4025 3406 3419 
Q 3406 3131 3298 2873 
Q 3191 2616 2906 2266 
Q 2828 2175 2409 1742 
Q 1991 1309 1228 531 
z
" transform="scale(0.015625)"/>
     <path id="DejaVuSans-44" d="M 1259 4147 
L 1259 519 
L 2022 519 
Q 2988 519 3436 956 
Q 3884 1394 3884 2338 
Q 3884 3275 3436 3711 
Q 2988 4147 2022 4147 
L 1259 4147 
z
M 628 4666 
L 1925 4666 
Q 3281 4666 3915 4102 
Q 4550 3538 4550 2338 
Q 4550 1131 3912 565 
Q 3275 0 1925 0 
L 628 0 
L 628 4666 
z
" transform="scale(0.015625)"/>
     <path id="DejaVuSans-6a" d="M 603 3500 
L 1178 3500 
L 1178 -63 
Q 1178 -731 923 -1031 
Q 669 -1331 103 -1331 
L -116 -1331 
L -116 -844 
L 38 -844 
Q 366 -844 484 -692 
Q 603 -541 603 -63 
L 603 3500 
z
M 603 4863 
L 1178 4863 
L 1178 4134 
L 603 4134 
L 603 4863 
z
" transform="scale(0.015625)"/>
     <path id="DejaVuSans-29" d="M 513 4856 
L 1013 4856 
Q 1481 4119 1714 3412 
Q 1947 2706 1947 2009 
Q 1947 1309 1714 600 
Q 1481 -109 1013 -844 
L 513 -844 
Q 928 -128 1133 580 
Q 1338 1288 1338 2009 
Q 1338 2731 1133 3434 
Q 928 4138 513 4856 
z
" transform="scale(0.015625)"/>
    </defs>
    <use xlink:href="#DejaVuSans-49"/>
    <use xlink:href="#DejaVuSans-6e" x="29.492188"/>
    <use xlink:href="#DejaVuSans-74" x="92.871094"/>
    <use xlink:href="#DejaVuSans-65" x="132.080078"/>
    <use xlink:href="#DejaVuSans-72" x="193.603516"/>
    <use xlink:href="#DejaVuSans-61" x="234.716797"/>
    <use xlink:href="#DejaVuSans-63" x="295.996094"/>
    <use xlink:href="#DejaVuSans-74" x="350.976562"/>
    <use xlink:href="#DejaVuSans-69" x="390.185547"/>
    <use xlink:href="#DejaVuSans-6f" x="417.96875"/>
    <use xlink:href="#DejaVuSans-6e" x="479.150391"/>
    <use xlink:href="#DejaVuSans-20" x="542.529297"/>
    <use xlink:href="#DejaVuSans-62" x="574.316406"/>
    <use xlink:href="#DejaVuSans-65" x="637.792969"/>
    <use xlink:href="#DejaVuSans-74" x="699.316406"/>
    <use xlink:href="#DejaVuSans-77" x="738.525391"/>
    <use xlink:href="#DejaVuSans-65" x="820.3125"/>
    <use xlink:href="#DejaVuSans-65" x="881.835938"/>
    <use xlink:href="#DejaVuSans-6e" x="943.359375"/>
    <use xlink:href="#DejaVuSans-20" x="1006.738281"/>
    <use xlink:href="#DejaVuSans-61" x="1038.525391"/>
    <use xlink:href="#DejaVuSans-20" x="1099.804688"/>
    <use xlink:href="#DejaVuSans-73" x="1131.591797"/>
    <use xlink:href="#DejaVuSans-70" x="1183.691406"/>
    <use xlink:href="#DejaVuSans-68" x="1247.167969"/>
    <use xlink:href="#DejaVuSans-65" x="1310.546875"/>
    <use xlink:href="#DejaVuSans-72" x="1372.070312"/>
    <use xlink:href="#DejaVuSans-65" x="1410.933594"/>
    <use xlink:href="#DejaVuSans-20" x="1472.457031"/>
    <use xlink:href="#DejaVuSans-61" x="1504.244141"/>
    <use xlink:href="#DejaVuSans-6e" x="1565.523438"/>
    <use xlink:href="#DejaVuSans-64" x="1628.902344"/>
    <use xlink:href="#DejaVuSans-20" x="1692.378906"/>
    <use xlink:href="#DejaVuSans-61" x="1724.166016"/>
    <use xlink:href="#DejaVuSans-20" x="1785.445312"/>
    <use xlink:href="#DejaVuSans-63" x="1817.232422"/>
    <use xlink:href="#DejaVuSans-79" x="1872.212891"/>
    <use xlink:href="#DejaVuSans-6c" x="1931.392578"/>
    <use xlink:href="#DejaVuSans-69" x="1959.175781"/>
    <use xlink:href="#DejaVuSans-6e" x="1986.958984"/>
    <use xlink:href="#DejaVuSans-64" x="2050.337891"/>
    <use xlink:href="#DejaVuSans-65" x="2113.814453"/>
    <use xlink:href="#DejaVuSans-72" x="2175.337891"/>
    <use xlink:href="#DejaVuSans-20" x="2216.451172"/>
    <use xlink:href="#DejaVuSans-28" x="2248.238281"/>
    <use xlink:href="#DejaVuSans-32" x="2287.251953"/>
    <use xlink:href="#DejaVuSans-44" x="2350.875"/>
    <use xlink:href="#DejaVuSans-20" x="2427.876953"/>
    <use xlink:href="#DejaVuSans-70" x="2459.664062"/>
    <use xlink:href="#DejaVuSans-72" x="2523.140625"/>
    <use xlink:href="#DejaVuSans-6f" x="2562.003906"/>
    <use xlink:href="#DejaVuSans-6a" x="2623.185547"/>
    <use xlink:href="#DejaVuSans-65" x="2650.96875"/>
    <use xlink:href="#DejaVuSans-63" x="2712.492188"/>
    <use xlink:href="#DejaVuSans-74" x="2767.472656"/>
    <use xlink:href="#DejaVuSans-69" x="2806.681641"/>
    <use xlink:href="#DejaVuSans-6f" x="2834.464844"/>
    <use xlink:href="#DejaVuSans-6e" x="2895.646484"/>
    <use xlink:href="#DejaVuSans-29" x="2959.025391"/>
   </g>
  </g>
 </g>
 <defs>
  <clipPath id="p33276d82ad">
   <rect x="90" y="96.556364" width="253.636364" height="236.727273"/>
  </clipPath>
  <clipPath id="p5b94987eb4">
   <rect x="394.363636" y="96.556364" width="253.636364" height="236.727273"/>
  </clipPath>
 </defs>
</svg>
